# xmcd
#
# Track frame offsets: 
#        150
#        13687
#        26437
#        39512
#        50992
#        62202
#        73037
#        86812
#        98645
#        112092
#        125855
#        139655
#        148067
#        159087
#        171757
#        181960
#        191297
#        203802
#
# Disc length: 2866 seconds
#
# Revision: 3
# Processed by: cddbd v1.5.2PL0 Copyright (c) Steve Scherf et al.
# Submitted via: ExactAudioCopy v0.99pb5
#
DISCID=050b3012
DTITLE=Various Artist - The History Of Country Music - The Sixties - Volume 1
DTITLE=Various Artist - CD 1
DYEAR=1993
DGENRE=Country
TTITLE0=Patsy Cline - She's got you
TTITLE1=Stonewall Jackson - B.J. the D.J.
TTITLE2=Tammy Wynette and David Houston - My elusive dreams
TTITLE3=Marty Robbins - Ribbon of darkness
TTITLE4="Little" Jimmy Dickens - May the bird of paradise fly up your 
TTITLE4=nose
TTITLE5=Jim Reeves - I guess I'm crazy
TTITLE6=Lefty Frizzell - Saginaw, Michigan
TTITLE7=Johnny Cash - Ring of fire
TTITLE8=Tammy Wynette - D.I.V.O.R.C.E.
TTITLE9=Jimmy Dean - Big Bad John
TTITLE10=Charley Pride - All I have to offer you (is me)
TTITLE11=Roger Miller - Dang me
TTITLE12=George Jones - Tender years
TTITLE13=Johnny Horton - North to Alaska
TTITLE14=Dave Dudley - Six days on the road
TTITLE15=Lester Flatt, Earl Scruggs and The Foggy Mountain Boys - The ba
TTITLE15=llad of Jed Clampett
TTITLE16=Bill Anderson and Jan Howard - For loving you
TTITLE17=Sheb Wooley - That's my Pa
EXTD=
EXTT0=
EXTT1=
EXTT2=
EXTT3=
EXTT4=
EXTT5=
EXTT6=
EXTT7=
EXTT8=
EXTT9=
EXTT10=
EXTT11=
EXTT12=
EXTT13=
EXTT14=
EXTT15=
EXTT16=
EXTT17=
PLAYORDER=
